<svg width="24px" height="24px" viewBox="0 0 24 24" version="1.1" xmlns="http://www.w3.org/2000/svg" xmlns:xlink="http://www.w3.org/1999/xlink"><title>评论</title><desc>Created with Sketch.</desc><g id="rr-comment" stroke="none" stroke-width="1" fill="none" fill-rule="evenodd"><g transform="translate(-946.000000, -969.000000)" fill="#333333" fill-rule="nonzero"><g transform="translate(946.000000, 969.000000)"><path d="M1.546875,17.896875 C0.5625,16.15625 0,14.14375 0,12 C0,5.371875 5.371875,0 12,0 C18.628125,0 24,5.371875 24,12 C24,18.628125 18.628125,24 12,24 C10.0625,24 8.23125,23.540625 6.6125,22.725 L2.1,23.59375 C1.059375,23.79375 0.396875,23.115625 0.625,22.08125 L1.546875,17.896875 Z M6.48125,13.91875 C7.409375,13.91875 8.1625,13.165625 8.1625,12.2375 C8.1625,11.309375 7.409375,10.55625 6.48125,10.55625 C5.553125,10.55625 4.8,11.309375 4.8,12.2375 C4.8,13.16875 5.553125,13.91875 6.48125,13.91875 Z M12.240625,13.91875 C13.16875,13.91875 13.921875,13.165625 13.921875,12.2375 C13.921875,11.309375 13.16875,10.55625 12.240625,10.55625 C11.3125,10.55625 10.559375,11.309375 10.559375,12.2375 C10.559375,13.16875 11.3125,13.91875 12.240625,13.91875 Z M18,13.91875 C18.928125,13.91875 19.68125,13.165625 19.68125,12.2375 C19.68125,11.309375 18.928125,10.55625 18,10.55625 C17.071875,10.55625 16.31875,11.309375 16.31875,12.2375 C16.31875,13.16875 17.071875,13.91875 18,13.91875 Z" id="形状"></path></g></g></g></svg>