<svg width="24px" height="25px" viewBox="0 0 24 25" version="1.1" xmlns="http://www.w3.org/2000/svg" xmlns:xlink="http://www.w3.org/1999/xlink" class=""><title>赞</title><desc>Created with Sketch.</desc><g id="rr-thumnsup" stroke="none" stroke-width="1" fill="none" fill-rule="evenodd"><g transform="translate(-1040.000000, -968.000000)" fill="#333333" fill-rule="nonzero"><g transform="translate(1040.000000, 968.000000)"><path d="M22.3416991,10.0138929 L15.7436814,10.0138929 C18.3001062,0.48675 13.9818761,0 13.9818761,0 C12.1510796,0 12.5310796,1.46039286 12.3928496,1.70371429 C12.3928496,6.36292857 7.48764602,10.0138929 7.48764602,10.0138929 L7.48764602,23.2267143 C7.48764602,24.5305 9.24927434,25 9.94021239,25 L19.8545487,25 C20.787292,25 21.5471858,22.5311786 21.5471858,22.5311786 C24,14.1168571 24,11.6134286 24,11.6134286 C24,9.87492857 22.3416991,10.0138929 22.3416991,10.0138929 L22.3416991,10.0138929 Z M4.7800708,10.0182102 L0.829061947,10.0182102 C0.0128849558,10.0182102 0,10.8267143 0,10.8267143 L0.816176991,24.1523929 C0.816176991,25 1.65812389,25 1.65812389,25 L5.0780177,25 C5.79047788,25 5.78403643,24.4393214 5.78403643,24.4393214 L5.78403643,11.0287143 C5.78403643,10.0052143 4.7800708,10.0182102 4.7800708,10.0182102 L4.7800708,10.0182102 Z" id="形状"></path></g></g></g></svg>