<svg width="8px" height="10px" viewBox="0 0 8 10" version="1.1" xmlns="http://www.w3.org/2000/svg" xmlns:xlink="http://www.w3.org/1999/xlink"><title>Address</title><desc>Created with Sketch.</desc><g id="rr-address" stroke="none" stroke-width="1" fill="none" fill-rule="evenodd"><g transform="translate(-404.000000, -975.000000)" fill="#3580F9" fill-rule="nonzero"><g transform="translate(404.000000, 975.000000)"><path d="M8,3.91298833 C8,1.64510401 6.31701783,0 4,0 C1.79448947,0 0,1.75545408 0,3.91298833 C0,5.50608828 2.21199352,8.20395738 3.40097245,9.65372907 L3.489141,9.76027397 C3.61361426,9.91248097 3.80032415,10 4.0012966,10 C4.20097245,10 4.38768233,9.91248097 4.51345219,9.76027397 L4.60162075,9.65372907 C5.78800648,8.20395738 8,5.50608828 8,3.91298833 Z M3.97925446,5.04693049 C3.1636953,5.04693049 2.50113452,4.39878234 2.50113452,3.60096398 C2.50113452,2.80314561 3.1636953,2.15499746 3.97925446,2.15499746 C4.79481361,2.15499746 5.45737439,2.80314561 5.45737439,3.60096398 C5.45737439,4.39878234 4.79481361,5.04693049 3.97925446,5.04693049 Z" id="形状"></path></g></g></g></svg>