<svg width="28px" height="22px" viewBox="0 0 28 22" version="1.1" xmlns="http://www.w3.org/2000/svg" xmlns:xlink="http://www.w3.org/1999/xlink"><title>编组</title><desc>Created with Sketch.</desc><g id="rr-share" stroke="none" stroke-width="1" fill="none" fill-rule="evenodd"><g transform="translate(-848.000000, -970.000000)" fill="#333333" fill-rule="nonzero"><g transform="translate(848.000000, 970.000000)"><path d="M27.3986783,9.75404036 L15.7182547,0.269917621 C15.3602096,-0.0225772598 14.8645003,-0.082673126 14.44636,0.115723176 C14.0282197,0.314119479 13.7630657,0.735224422 13.7660259,1.19619754 L13.7660259,5.68824531 C6.66551444,6.9997921 1.08065743,13.114879 0.00157738497,20.3775694 C-0.0188533792,20.7064633 0.16060843,21.0155593 0.457141439,21.1622101 C0.753674449,21.3088609 1.10962563,21.264554 1.360724,21.0497371 C4.06254274,18.2708973 7.65398471,16.9511534 13.7660259,16.6314639 L13.7660259,20.8120193 C13.7662674,21.2715111 14.0326298,21.6897064 14.4500998,21.8860318 C14.8675699,22.0823572 15.3613597,22.0216418 15.7182547,21.730102 L27.3986783,12.2377821 C27.7791839,11.9387304 28.0008175,11.4825137 28,11 C27.99389,10.5167914 27.7738571,10.0608701 27.3986783,9.75404036 L27.3986783,9.75404036 Z" id="路径"></path></g></g></g></svg>